<svg id="Layer_1" data-name="Layer 1" xmlns="http://www.w3.org/2000/svg" viewBox="0 0 360 360"><defs><style>.cls-1{fill:#fff;}</style></defs><title>Amist-logo-orig</title><path class="cls-1" d="M144.32,175.25a21.92,21.92,0,0,1,15.56,6.37,22.35,22.35,0,0,1,4.72,7,21.33,21.33,0,0,1,1.74,8.57V215a3.92,3.92,0,0,1-1.12,3,3.3,3.3,0,0,1-4.8,0,3.91,3.91,0,0,1-1.12-3v-1.74a22.48,22.48,0,0,1-6.75,4.22,21.55,21.55,0,0,1-8.24,1.57,21.27,21.27,0,0,1-8.44-1.7,21.81,21.81,0,0,1-11.63-11.63,21.46,21.46,0,0,1-1.7-8.53,21.78,21.78,0,0,1,13.33-20.24A21.3,21.3,0,0,1,144.32,175.25Zm0,36.34a16.12,16.12,0,0,0,5.55-1,14.28,14.28,0,0,0,8.15-7.37,14.78,14.78,0,0,0,0-12,14.9,14.9,0,0,0-3.35-4.59,14.2,14.2,0,0,0-4.8-2.9,16.12,16.12,0,0,0-5.55-1,15,15,0,0,0-5.46,1,13.65,13.65,0,0,0-4.55,2.9,13.91,13.91,0,0,0-3.15,4.59,16.22,16.22,0,0,0,0,12,13.51,13.51,0,0,0,3.15,4.51,14,14,0,0,0,4.55,2.86A15,15,0,0,0,144.32,211.59Z"/><path class="cls-1" d="M198.12,192.05a9.43,9.43,0,0,0-2.57-6.91,9.1,9.1,0,0,0-12.75,0,9.43,9.43,0,0,0-2.57,6.91v22.77a3.92,3.92,0,0,1-1.12,3,3.3,3.3,0,0,1-4.8,0,3.92,3.92,0,0,1-1.12-3V179.05a4.06,4.06,0,0,1,1-2.86,3.54,3.54,0,0,1,4.55-.7,3.11,3.11,0,0,1,1.45,2.07,13.72,13.72,0,0,1,4.31-1.9,19.41,19.41,0,0,1,4.72-.58A18.15,18.15,0,0,1,196,176.4a13.6,13.6,0,0,1,5.63,4.22,14.19,14.19,0,0,1,5.71-4.22,18.13,18.13,0,0,1,6.79-1.32,18.34,18.34,0,0,1,5.84,1,14.16,14.16,0,0,1,5.09,3,15.15,15.15,0,0,1,3.64,5.26,19.42,19.42,0,0,1,1.41,7.78v22.77a3.91,3.91,0,0,1-1.12,3,3.3,3.3,0,0,1-4.8,0,3.91,3.91,0,0,1-1.12-3V192.05a9.44,9.44,0,0,0-2.57-6.91,9.1,9.1,0,0,0-12.75,0,9.43,9.43,0,0,0-2.57,6.91v22.77a3.78,3.78,0,0,1-1.12,3,3.4,3.4,0,0,1-4.8,0,3.78,3.78,0,0,1-1.12-3Z"/><path class="cls-1" d="M238.65,179.22a3.92,3.92,0,0,1,1.12-3,3.3,3.3,0,0,1,4.8,0,3.92,3.92,0,0,1,1.12,3V215a3.92,3.92,0,0,1-1.12,3,3.3,3.3,0,0,1-4.8,0,3.92,3.92,0,0,1-1.12-3Z"/><path class="cls-1" d="M285.06,182.7a3.29,3.29,0,0,1,.33,2.82,3.36,3.36,0,0,1-1.65,1.82,3.84,3.84,0,0,1-2.57.29,3.54,3.54,0,0,1-2.32-1.78A8.4,8.4,0,0,0,276,183a11,11,0,0,0-5.17-.91q-4,0-5.92,1.86a5.37,5.37,0,0,0,0,8.28q1.94,1.86,5.92,1.86a19.34,19.34,0,0,1,8.86,1.82,13.41,13.41,0,0,1,5.34,4.59,11,11,0,0,1,0,12,13.39,13.39,0,0,1-5.34,4.59,19.32,19.32,0,0,1-8.86,1.82,25.1,25.1,0,0,1-6.21-.66,14.39,14.39,0,0,1-4.43-1.9,12.83,12.83,0,0,1-3.15-2.94,21.93,21.93,0,0,1-2.28-3.77,4.28,4.28,0,0,1,.08-3.44,3.55,3.55,0,0,1,2-1.78,3.27,3.27,0,0,1,2.61.29,4.39,4.39,0,0,1,2,2.69,13,13,0,0,0,1.41,1.9,6.24,6.24,0,0,0,1.78,1.37,9.37,9.37,0,0,0,2.48.83,19.28,19.28,0,0,0,3.68.29q4.39,0,6.58-1.66a4.19,4.19,0,0,0,0-7.37q-2.2-1.66-6.58-1.66a15.49,15.49,0,0,1-8.11-1.95,13.47,13.47,0,0,1-4.88-4.84,12.38,12.38,0,0,1-1.65-6.25,12.62,12.62,0,0,1,1.61-6.25,13.05,13.05,0,0,1,4.88-4.84,15.72,15.72,0,0,1,8.15-1.95,22.51,22.51,0,0,1,5.22.54,14.49,14.49,0,0,1,3.93,1.53,11.24,11.24,0,0,1,2.9,2.4A20.73,20.73,0,0,1,285.06,182.7Z"/><path class="cls-1" d="M306.44,202.81q0,.5,0,2a14,14,0,0,0,.25,3,7.4,7.4,0,0,0,1.12,2.77,2.78,2.78,0,0,0,2.48,1.24,4,4,0,0,1,3.1,1.12,3.4,3.4,0,0,1,0,4.88,4,4,0,0,1-3.1,1.12h-2.9a7.68,7.68,0,0,1-1.61-.41,6.44,6.44,0,0,1-2.69-2,14.77,14.77,0,0,1-2.53-4.84,28,28,0,0,1-1.12-8.86V182.53H296.1a4,4,0,0,1-3.1-1.12,3.4,3.4,0,0,1,0-4.88,4,4,0,0,1,3.1-1.12h3.31v-9.85a3.92,3.92,0,0,1,1.12-3,3.3,3.3,0,0,1,4.8,0,3.92,3.92,0,0,1,1.12,3v9.85h3.64a4,4,0,0,1,3.1,1.12,3.4,3.4,0,0,1,0,4.88,4,4,0,0,1-3.1,1.12h-3.64Z"/><path class="cls-1" d="M118,163.25a8.4,8.4,0,0,0-2.44.39,15.09,15.09,0,0,0-3.27,1.47,29.44,29.44,0,0,0-3.09,2.3V134.25A6.63,6.63,0,0,0,96,133.62v33H92.83c0-16.76,0-40.71,0-40.91a6.63,6.63,0,0,0-13.16.23c0,.15,0,24,0,40.68H76.3V134.25a6.63,6.63,0,1,0-13.26,0v32.83A25.29,25.29,0,0,0,59.95,165a14.45,14.45,0,0,0-3.28-1.41,8.29,8.29,0,0,0-2.23-.33,15.64,15.64,0,0,0-10,3.82c12.24,9.58,13.71,29,13.71,29,2.44,18.73,11.52,27.56,28.05,27.57h0c16.54,0,25.62-8.84,28.06-27.57,0,0,1.47-19.41,13.71-29a15.64,15.64,0,0,0-10-3.82M86.22,201.91c-16.88,0-25.85-15.06-25.85-15.06s9-15.05,25.85-15.05c17.53,0,25.85,15.05,25.85,15.05s-9,15.06-25.85,15.06"/><circle class="cls-1" cx="86.22" cy="186.86" r="10.41"/></svg>